<mxfile host="app.diagrams.net" modified="2024-02-01T09:10:30.669Z" agent="Mozilla/5.0 (Macintosh; Intel Mac OS X 10_15_7) AppleWebKit/605.1.15 (KHTML, like Gecko) Version/17.2.1 Safari/605.1.15" etag="RLynpoYLSDUyOSAjUxq2" version="23.1.0" type="github">
  <diagram name="Page-1" id="YzuRRwNtvJoP5tr-6kcn">
    <mxGraphModel dx="289" dy="196" grid="1" gridSize="10" guides="1" tooltips="1" connect="1" arrows="1" fold="1" page="1" pageScale="1" pageWidth="827" pageHeight="1169" math="0" shadow="0">
      <root>
        <mxCell id="0" />
        <mxCell id="1" parent="0" />
        <mxCell id="udvCFMWbTleHwRw01EId-1" value="" style="verticalLabelPosition=bottom;shadow=0;dashed=0;align=center;html=1;verticalAlign=top;shape=mxgraph.electrical.abstract.dac;" parent="1" vertex="1">
          <mxGeometry x="520" y="360" width="70" height="46" as="geometry" />
        </mxCell>
        <mxCell id="NXYLz3kfdHCDzCrPjlBl-1" value="&lt;font style=&quot;font-size: 10px;&quot;&gt;ADC 1&lt;/font&gt;" style="text;html=1;strokeColor=none;fillColor=none;align=center;verticalAlign=middle;whiteSpace=wrap;rounded=0;" vertex="1" parent="1">
          <mxGeometry x="520" y="368" width="60" height="30" as="geometry" />
        </mxCell>
        <mxCell id="NXYLz3kfdHCDzCrPjlBl-6" value="" style="rounded=0;whiteSpace=wrap;html=1;rotation=90;" vertex="1" parent="1">
          <mxGeometry x="80" y="400" width="200" height="120" as="geometry" />
        </mxCell>
        <mxCell id="NXYLz3kfdHCDzCrPjlBl-8" value="Raspberry pi" style="text;html=1;strokeColor=none;fillColor=none;align=center;verticalAlign=middle;whiteSpace=wrap;rounded=0;" vertex="1" parent="1">
          <mxGeometry x="150" y="440" width="60" height="30" as="geometry" />
        </mxCell>
        <mxCell id="NXYLz3kfdHCDzCrPjlBl-9" value="" style="pointerEvents=1;verticalLabelPosition=bottom;shadow=0;dashed=0;align=center;html=1;verticalAlign=top;shape=mxgraph.electrical.inductors.inductor_3;" vertex="1" parent="1">
          <mxGeometry x="320" y="310" width="60" height="8" as="geometry" />
        </mxCell>
        <mxCell id="NXYLz3kfdHCDzCrPjlBl-12" value="" style="pointerEvents=1;verticalLabelPosition=bottom;shadow=0;dashed=0;align=center;html=1;verticalAlign=top;shape=mxgraph.electrical.capacitors.capacitor_1;direction=south;" vertex="1" parent="1">
          <mxGeometry x="310" y="318" width="20" height="60" as="geometry" />
        </mxCell>
      </root>
    </mxGraphModel>
  </diagram>
</mxfile>
